<?xml version="1.0" ?><!DOCTYPE svg  PUBLIC '-//W3C//DTD SVG 1.1//EN'  'http://www.w3.org/Graphics/SVG/1.1/DTD/svg11.dtd'><svg enable-background="new 0 0 800 800" height="800px" id="Layer_1" version="1.1" viewBox="0 0 800 800" width="800px" xml:space="preserve" xmlns="http://www.w3.org/2000/svg" xmlns:cc="http://creativecommons.org/ns#" xmlns:dc="http://purl.org/dc/elements/1.1/" xmlns:inkscape="http://www.inkscape.org/namespaces/inkscape" xmlns:rdf="http://www.w3.org/1999/02/22-rdf-syntax-ns#" xmlns:sodipodi="http://sodipodi.sourceforge.net/DTD/sodipodi-0.dtd" xmlns:svg="http://www.w3.org/2000/svg" xmlns:xlink="http://www.w3.org/1999/xlink"><g><path d="M453.284,347.405c-19.414,0-37.904,6.083-53.277,17.353c-15.372-11.27-33.862-17.353-53.292-17.353   c-24.147,0-46.849,9.399-63.923,26.474c-35.242,35.233-35.249,92.583,0,127.832l106.59,106.599   c2.817,2.817,6.64,4.401,10.625,4.401c3.985,0,7.8-1.584,10.632-4.401l106.567-106.599c35.249-35.249,35.234-92.599,0-127.832   C500.126,356.805,477.425,347.405,453.284,347.405z M495.958,480.463l-95.951,95.973l-95.966-95.973   c-23.524-23.525-23.524-61.812,0-85.335c11.402-11.395,26.554-17.668,42.674-17.668c16.113,0,31.272,6.273,42.667,17.668   c5.643,5.643,15.621,5.636,21.257,0c11.388-11.395,26.531-17.668,42.645-17.668s31.272,6.273,42.674,17.668   C519.482,418.651,519.482,456.938,495.958,480.463z" fill="#FD808A"/><path d="M571.299,306.661h25.725c6.003,0,11.433-3.573,13.81-9.091c2.362-5.518,1.232-11.916-2.905-16.274   c-26.02-27.463-69.882-56.967-114.919-67.511c6.457-9.898,18.901-21.228,44.2-34.324c5.313-2.751,8.482-8.402,8.071-14.374   c-0.396-5.973-4.314-11.138-9.964-13.134c-43.202-15.336-83.559-0.873-111.367,20.691c-5.254-26.246-18.344-55.009-33.172-76.713   c-13.582-19.877-35.477-44.237-62.64-47.385c-8.254-1.079-15.702,4.953-16.655,13.192c-0.954,8.247,4.945,15.702,13.192,16.656   c12.048,1.401,27.486,14.293,41.288,34.493c16.267,23.795,26.363,51.105,29.386,71.151c-27.2-27.266-73.814-49.997-124.296-32.086   c-5.649,2.003-9.567,7.161-9.971,13.134c-0.411,5.972,2.766,11.615,8.078,14.374c25.285,13.089,37.729,24.426,44.186,34.332   c-45.037,10.537-88.892,40.041-114.918,67.504c-4.138,4.359-5.268,10.757-2.906,16.274c2.377,5.518,7.808,9.091,13.81,9.091h19.37   c-29.042,29.519-45.154,68.745-45.154,115.117c0,192.328,199.863,322.023,208.367,327.454c2.466,1.569,5.275,2.348,8.086,2.348   c2.804,0,5.621-0.778,8.086-2.348c8.497-5.431,208.367-135.126,208.367-327.454C616.453,375.405,600.341,336.179,571.299,306.661z    M335.871,240.375c4.292-0.44,8.188-2.707,10.691-6.215c2.502-3.507,3.382-7.924,2.407-12.128   c-4-17.228-13.442-32.035-29.534-45.675c36.423,5.246,63.704,34.522,69.779,49.85c2.275,5.73,7.807,9.495,13.971,9.495   c6.163,0,11.695-3.764,13.971-9.495c6.061-15.328,33.341-44.604,69.764-49.85c-16.099,13.641-25.534,28.455-29.525,45.69   c-0.969,4.197-0.089,8.614,2.421,12.114c2.495,3.508,6.384,5.775,10.684,6.215c29.849,3.089,61.237,18.388,86.126,36.232h-25.27   C496.34,257.141,451.802,246.421,400,246.421c-51.802,0-96.34,10.72-131.354,30.186h-18.909   C274.633,258.763,306.022,243.464,335.871,240.375z M400,718.341c-36.797-26.077-186.399-141.67-186.399-296.563   c0-56.322,26.635-93.56,64.98-116.239c1.159-0.477,2.23-1.108,3.229-1.85c34.075-19.114,76.778-27.214,118.19-27.214   s84.101,8.093,118.177,27.207c1.012,0.741,2.083,1.38,3.258,1.864c38.33,22.672,64.966,59.917,64.966,116.231   C586.4,576.671,436.789,692.264,400,718.341z" fill="#FD808A"/></g></svg>